<?xml version="1.0" standalone="no"?>
<!DOCTYPE svg PUBLIC "-//W3C//DTD SVG 20010904//EN"
 "http://www.w3.org/TR/2001/REC-SVG-20010904/DTD/svg10.dtd">
<svg version="1.0" xmlns="http://www.w3.org/2000/svg"
 width="640.000000pt" height="640.000000pt" viewBox="0 0 640.000000 640.000000"
 preserveAspectRatio="xMidYMid meet">
<metadata>
Created by potrace 1.11, written by Peter Selinger 2001-2013
</metadata>
<g transform="translate(0.000000,640.000000) scale(0.100000,-0.100000)"
fill="#000000" stroke="none">
<path d="M0 4869 c1 -1022 5 -1539 11 -1557 6 -15 12 -90 15 -167 4 -180 6
-198 21 -210 13 -10 20 -112 29 -415 3 -85 8 -162 11 -170 3 -8 8 -22 10 -30
6 -23 5 -149 -1 -159 -9 -14 5 -71 15 -65 5 3 9 4 10 2 3 -9 20 -218 25 -311
3 -59 10 -107 15 -107 5 0 9 -60 9 -132 0 -73 4 -162 9 -198 20 -150 50 -574
56 -802 2 -59 6 -111 9 -116 3 -5 8 -69 11 -143 8 -220 15 -289 30 -289 9 0
15 16 18 43 l4 42 1 -43 2 -42 215 0 215 1 0 40 c0 37 2 39 30 39 28 0 30 -2
30 -40 l0 -40 166 0 166 0 -6 72 c-3 40 -6 116 -7 168 -1 52 -6 120 -12 150
-13 73 5 166 33 173 18 5 24 24 23 74 0 6 6 9 13 6 8 -3 14 -15 14 -28 0 -12
3 -43 6 -69 7 -45 6 -46 -20 -46 -14 0 -26 5 -26 10 0 6 -7 10 -15 10 -8 0
-15 -9 -15 -20 0 -11 5 -20 10 -20 6 0 10 -7 10 -16 0 -8 5 -12 10 -9 6 4 8
11 5 16 -4 5 3 9 14 9 30 0 39 -67 40 -284 1 -104 3 -192 6 -194 14 -14 19 22
26 166 4 86 10 171 13 187 8 40 15 194 21 455 3 118 10 368 16 555 6 187 14
484 19 660 5 176 12 332 16 347 4 16 2 28 -4 28 -5 0 -12 16 -15 35 -3 20 -17
49 -31 66 -14 17 -26 37 -26 45 0 8 -14 29 -31 47 -18 17 -40 51 -51 75 -22
50 -40 50 -49 1 -6 -31 -7 -30 -9 16 -3 70 -14 110 -28 108 -9 -2 -12 22 -12
83 0 71 4 93 21 121 16 25 24 59 28 116 5 71 9 82 26 85 32 6 53 30 48 56 -3
15 4 36 18 55 16 22 24 49 27 91 3 39 8 59 16 57 6 -2 10 -13 8 -25 -2 -11 1
-23 7 -26 16 -10 24 80 17 178 -11 142 -25 361 -31 476 -3 58 -10 132 -15 165
-6 33 -17 150 -25 260 -15 194 -26 299 -46 455 -5 41 -12 107 -15 145 -4 45
-12 74 -21 82 -12 9 -14 24 -8 68 8 69 -13 393 -28 420 -6 11 -10 24 -9 29 2
5 -4 4 -12 -3 -13 -11 -18 -10 -31 3 -9 9 -21 16 -26 16 -5 0 -9 7 -9 15 0 14
-11 19 -37 16 -7 -1 -13 5 -13 14 0 8 7 15 15 15 11 0 15 12 15 48 0 39 -5 52
-30 75 -35 33 -37 47 -11 71 14 13 28 15 59 10 44 -7 44 -7 55 -99 2 -16 5 -2
6 31 2 94 -6 121 -40 133 -26 9 -28 12 -19 37 6 14 7 48 4 75 -7 53 2 111 15
90 4 -6 7 5 5 26 -1 21 -2 62 -3 91 l-1 52 -515 0 -516 0 1 -1531z m980 927
c0 -3 -4 -8 -10 -11 -5 -3 -10 -1 -10 4 0 6 5 11 10 11 6 0 10 -2 10 -4z m187
-988 c-3 -8 -6 -5 -6 6 -1 11 2 17 5 13 3 -3 4 -12 1 -19z m17 -293 c4 -41 3
-55 -4 -45 -9 13 -15 119 -6 109 2 -2 6 -31 10 -64z m63 -987 c-3 -8 -6 -5 -6
6 -1 11 2 17 5 13 3 -3 4 -12 1 -19z m13 -38 c0 -5 -4 -10 -10 -10 -5 0 -10 5
-10 10 0 6 5 10 10 10 6 0 10 -4 10 -10z m-560 -906 c0 -8 -5 -12 -10 -9 -6 4
-8 11 -5 16 9 14 15 11 15 -7z m135 -857 c-1 -26 -2 -107 -4 -179 l-4 -133 -9
85 c-5 51 -16 100 -28 121 -26 47 -27 126 -2 145 32 25 47 13 47 -39z m426
-128 c2 -116 0 -136 -10 -120 -5 8 -7 39 -5 70 2 31 3 74 4 95 0 70 10 31 11
-45z m-461 -28 c0 -16 3 -44 6 -62 5 -32 5 -33 -10 -15 -18 22 -22 106 -6 106
6 0 10 -13 10 -29z m-536 -1106 c-4 -8 -8 -15 -10 -15 -2 0 -4 7 -4 15 0 8 4
15 10 15 5 0 7 -7 4 -15z m63 -57 c-3 -8 -6 -5 -6 6 -1 11 2 17 5 13 3 -3 4
-12 1 -19z m-40 -190 c-3 -8 -6 -5 -6 6 -1 11 2 17 5 13 3 -3 4 -12 1 -19z
m440 -30 c-2 -13 -4 -5 -4 17 -1 22 1 32 4 23 2 -10 2 -28 0 -40z m50 0 c-2
-13 -4 -5 -4 17 -1 22 1 32 4 23 2 -10 2 -28 0 -40z"/>
<path d="M811 1744 c0 -11 3 -14 6 -6 3 7 2 16 -1 19 -3 4 -6 -2 -5 -13z"/>
<path d="M1383 6360 c0 -25 2 -35 4 -22 2 12 2 32 0 45 -2 12 -4 2 -4 -23z"/>
<path d="M1675 6298 c-9 -139 -11 -303 -4 -303 4 0 16 -8 27 -18 26 -23 35
-57 16 -57 -10 0 -14 -12 -14 -40 0 -22 -4 -40 -9 -40 -4 0 -11 -21 -14 -47
-4 -27 -9 -58 -13 -70 -5 -17 -2 -23 9 -23 11 0 13 -10 9 -47 -3 -27 -11 -57
-18 -68 -16 -23 -19 -65 -4 -65 6 0 10 -7 10 -16 0 -8 -4 -13 -9 -10 -17 11
-21 -29 -21 -218 0 -105 -2 -204 -4 -221 -3 -16 -7 -212 -11 -434 -5 -347 -8
-406 -22 -428 -15 -22 -15 -47 -4 -266 7 -133 13 -243 15 -245 2 -1 7 30 12
70 5 50 9 63 12 41 2 -18 8 -33 14 -33 12 0 2 184 -12 210 -5 10 -5 32 1 56
13 50 13 52 4 97 -6 31 -5 37 10 37 13 0 16 5 10 23 -13 38 -22 151 -14 167
12 23 22 -33 16 -86 -3 -34 -1 -47 10 -51 8 -3 13 -14 10 -24 -3 -11 0 -35 6
-54 9 -31 12 -33 23 -17 11 15 13 15 18 -8 2 -14 8 -38 11 -55 4 -16 10 -55
14 -85 3 -30 12 -64 18 -75 10 -17 12 -14 17 25 4 25 5 83 4 130 -3 78 -1 85
17 88 31 6 38 18 20 36 -14 13 -15 20 -5 31 7 9 10 26 6 41 -5 20 -3 27 14 31
12 3 20 14 20 25 0 16 5 19 25 16 19 -4 25 -1 25 13 0 11 -6 19 -12 20 -7 0
-3 5 10 11 12 6 22 17 22 24 0 7 3 14 8 16 14 6 51 94 57 138 4 29 3 40 -3 31
-7 -10 -14 -11 -31 -2 -11 7 -21 16 -21 21 0 6 -7 10 -15 10 -8 0 -15 6 -15
14 0 8 -7 17 -16 20 -13 5 -14 15 -9 49 4 23 11 46 16 51 5 6 9 23 9 38 0 20
5 28 18 28 10 0 42 27 72 60 30 33 61 60 67 60 7 0 18 9 25 20 14 23 34 26 41
8 6 -18 20 -2 22 25 1 19 8 22 43 24 23 0 45 2 48 2 4 1 -5 12 -19 25 -14 13
-23 27 -20 30 11 11 23 6 23 -10 0 -23 34 -13 38 11 2 11 11 27 19 37 12 13
13 38 8 135 -3 65 -10 134 -14 153 -4 19 -6 82 -4 140 2 58 -1 134 -7 170 -5
36 -12 103 -14 150 -4 80 -10 146 -35 420 -6 63 -11 121 -11 128 0 9 -60 12
-269 12 l-269 0 -7 -102z m545 -378 c0 -5 -5 -10 -11 -10 -5 0 -7 5 -4 10 3 6
8 10 11 10 2 0 4 -4 4 -10z m-550 -617 c0 -41 -3 -54 -10 -43 -13 20 -13 100
0 100 6 0 10 -26 10 -57z m190 -992 c0 -17 -18 -21 -24 -6 -3 9 0 15 9 15 8 0
15 -4 15 -9z"/>
<path d="M2440 6368 c0 -52 29 -461 35 -483 2 -11 7 -67 10 -123 3 -56 13
-124 20 -150 8 -26 15 -60 15 -77 0 -43 13 -59 36 -47 11 5 33 16 49 23 17 8
53 37 80 65 28 28 68 59 90 70 40 20 43 21 84 52 21 16 24 28 26 93 2 41 -1
106 -6 144 -5 39 -14 138 -19 220 -6 83 -13 171 -16 198 l-6 47 -199 0 -199 0
0 -32z"/>
<path d="M2990 6386 c0 -8 5 -18 10 -21 6 -3 10 3 10 14 0 12 -4 21 -10 21 -5
0 -10 -6 -10 -14z"/>
<path d="M3020 6374 c0 -15 8 -34 18 -43 14 -13 17 -35 19 -116 4 -205 16
-411 25 -428 13 -24 139 -19 168 8 20 18 22 18 60 -4 36 -20 45 -21 97 -11 32
6 69 12 83 14 14 1 35 6 47 10 12 4 24 2 28 -4 3 -5 17 -10 31 -10 13 0 24 -4
24 -10 0 -5 -5 -10 -11 -10 -6 0 -9 -4 -7 -10 5 -14 109 -120 118 -120 19 0
-8 53 -48 94 -24 24 -38 47 -33 50 5 4 12 2 16 -4 10 -16 45 -12 52 6 3 8 1
26 -5 39 -14 31 2 43 27 21 17 -16 19 -15 23 6 2 13 1 84 -3 158 -4 74 -8 192
-8 263 l-1 127 -360 0 -360 0 0 -26z m690 -384 c0 -5 -9 -10 -20 -10 -11 0
-20 5 -20 10 0 6 9 10 20 10 11 0 20 -4 20 -10z m-60 -90 c0 -19 -11 -26 -23
-14 -8 8 3 34 14 34 5 0 9 -9 9 -20z"/>
<path d="M3966 6293 c-24 -346 -26 -581 -5 -640 5 -12 23 -30 41 -39 17 -9 38
-23 46 -30 7 -8 17 -14 20 -14 4 0 43 -33 87 -74 43 -41 89 -80 102 -87 13 -7
23 -18 23 -26 0 -7 5 -13 12 -13 6 0 8 -3 5 -7 -4 -4 -21 3 -37 15 -16 12 -31
22 -34 22 -3 0 -45 40 -95 88 -69 67 -100 90 -133 99 l-43 11 30 -24 c17 -13
35 -24 41 -24 14 0 53 -44 93 -103 23 -33 41 -50 61 -54 16 -3 32 -13 35 -22
2 -9 23 -36 45 -60 22 -24 40 -45 40 -47 0 -3 12 -22 26 -44 20 -30 30 -38 40
-30 9 9 11 7 8 -8 -3 -10 2 -24 10 -31 9 -8 16 -20 16 -29 0 -10 7 -6 20 11
11 14 20 33 20 42 0 12 6 9 23 -12 22 -27 45 -88 68 -182 6 -27 17 -45 28 -48
18 -5 27 -22 72 -152 16 -46 38 -100 50 -120 40 -67 44 -315 5 -380 -16 -28
-22 -59 -27 -146 -4 -60 -9 -126 -12 -145 -14 -98 -19 -228 -9 -246 10 -17 11
-17 12 -1 0 38 20 14 20 -25 1 -75 20 -479 28 -591 11 -138 32 -169 32 -45 0
115 2 118 60 118 45 0 49 -2 59 -31 6 -18 11 -45 11 -60 0 -29 15 -40 22 -17
3 7 13 0 24 -16 13 -21 15 -31 6 -34 -6 -2 -12 -8 -12 -14 0 -6 6 -6 15 2 12
10 17 7 26 -16 6 -16 14 -49 19 -74 4 -25 8 -37 9 -27 1 24 21 11 21 -14 0
-10 -7 -19 -15 -19 -17 0 -21 -36 -4 -42 6 -2 11 -20 11 -41 0 -24 6 -40 16
-46 13 -7 17 -28 19 -90 3 -80 3 -82 -23 -91 -25 -10 -25 -11 -10 -33 9 -12
23 -31 31 -42 10 -15 16 -59 19 -150 3 -72 5 -131 5 -132 3 -11 30 1 36 15 13
33 53 -65 61 -151 3 -42 10 -77 15 -77 8 0 18 45 18 85 0 11 1 58 1 104 1 47
7 94 13 105 6 12 11 25 12 30 0 13 43 27 50 16 4 -6 9 -43 11 -82 3 -40 8 -80
11 -88 2 -8 6 -100 9 -205 2 -104 6 -228 9 -275 5 -68 4 -83 -6 -72 -15 14
-69 17 -69 3 0 -17 30 -33 55 -29 22 5 25 2 25 -22 0 -18 -7 -31 -22 -38 -18
-8 -19 -11 -6 -11 28 -1 38 -35 38 -133 0 -98 7 -141 21 -133 4 3 6 47 4 98
-2 50 -7 189 -10 307 -6 234 -14 367 -21 390 -3 8 -8 78 -10 155 -3 77 -11
253 -20 390 -8 138 -16 293 -19 345 -3 52 -7 106 -9 120 -3 14 -8 64 -11 112
-3 48 -13 183 -22 300 -8 117 -18 290 -23 383 -8 184 -22 357 -47 585 -10 91
-15 216 -14 336 2 164 -1 203 -19 278 -19 78 -19 90 -6 105 12 13 13 25 3 66
-6 28 -16 53 -21 57 -7 4 -12 56 -13 125 -3 117 -7 238 -23 693 -5 129 -9 250
-9 268 l-1 32 -528 0 -529 0 -7 -107z m1028 61 c3 -9 6 -76 6 -151 0 -103 -3
-134 -12 -131 -7 3 -17 24 -21 49 -5 24 -12 60 -17 79 -5 19 -11 54 -14 78 -4
37 -2 42 16 42 12 0 19 6 17 18 -3 35 13 47 25 16z m-37 -276 c-3 -8 -6 -5 -6
6 -1 11 2 17 5 13 3 -3 4 -12 1 -19z m-649 -756 c2 -7 -3 -12 -12 -12 -9 0
-16 7 -16 16 0 17 22 14 28 -4z m92 -27 c0 -8 7 -15 16 -15 8 0 12 -4 9 -10
-10 -16 -21 -11 -33 15 -7 15 -8 25 -2 25 6 0 10 -7 10 -15z m-60 -31 c0 -8
-4 -14 -10 -14 -5 0 -10 9 -10 21 0 11 5 17 10 14 6 -3 10 -13 10 -21z m108
-31 c-4 -22 -22 -20 -26 1 -2 10 3 16 13 16 10 0 15 -7 13 -17z m784 -2802 c2
-28 0 -37 -9 -34 -14 6 -16 17 -7 51 9 31 11 28 16 -17z"/>
<path d="M5465 6363 c6 -54 14 -193 25 -453 5 -124 14 -286 20 -360 11 -162
27 -448 40 -735 5 -115 14 -291 20 -390 5 -99 10 -263 10 -365 1 -102 5 -221
10 -265 9 -75 14 -158 23 -400 2 -55 0 -109 -4 -120 -10 -26 -8 -35 -23 153
-10 120 -18 168 -29 179 -13 14 -15 13 -16 -8 0 -13 -3 -44 -6 -69 -14 -108
-19 -228 -11 -265 11 -51 14 -77 22 -202 5 -77 10 -103 20 -103 11 0 14 18 15
73 2 166 4 190 16 194 22 8 37 -42 44 -147 5 -58 12 -145 18 -195 5 -49 12
-128 16 -174 21 -277 36 -421 46 -427 5 -3 9 14 9 38 0 53 14 81 23 46 4 -12
7 -35 7 -50 0 -26 3 -28 40 -28 28 0 40 -4 40 -14 0 -14 56 -33 67 -22 3 3 12
-1 19 -9 17 -17 22 -127 5 -133 -6 -2 -11 -19 -11 -37 0 -19 -4 -37 -10 -40
-5 -3 -10 -31 -10 -62 0 -51 -3 -58 -38 -93 -32 -31 -44 -36 -70 -32 -23 3
-32 10 -32 23 0 11 -4 19 -9 19 -8 0 -21 -394 -17 -535 1 -45 -2 -60 -13 -60
-8 0 -14 14 -16 40 -6 97 -28 271 -35 285 -4 8 -11 37 -14 63 -6 37 -11 47
-22 43 -9 -4 -18 3 -24 17 -7 18 -9 15 -11 -23 -1 -25 -4 -63 -5 -85 -11 -150
-2 -389 13 -347 7 18 22 15 22 -5 2 -43 12 -225 16 -293 3 -41 8 -137 11 -212
5 -108 9 -138 20 -138 17 0 17 -8 2 -137 -9 -78 -15 -103 -26 -103 -12 0 -13
-12 -8 -67 4 -38 2 -90 -3 -118 -5 -27 -12 -87 -16 -133 l-7 -82 84 0 85 0 -5
80 c-3 55 -1 80 7 80 7 0 11 -27 11 -80 0 -75 1 -80 21 -80 22 0 22 0 16 193
-3 105 -11 210 -16 232 -15 56 -25 578 -11 570 5 -3 11 -21 11 -38 l1 -32 7
30 c9 43 38 45 57 3 32 -67 39 -78 51 -78 6 0 15 -9 18 -20 6 -18 17 -24 38
-21 4 0 7 -11 7 -25 0 -14 4 -23 10 -19 6 4 10 -14 10 -46 0 -47 4 -55 32 -79
36 -30 66 -110 42 -110 -10 0 -14 -12 -14 -40 0 -30 4 -40 16 -40 14 0 15 -10
9 -80 -6 -70 -5 -80 9 -80 13 0 16 13 18 73 3 143 7 193 21 247 8 30 13 80 11
110 -4 51 -2 52 13 10 4 -11 9 -7 18 14 l13 30 11 -55 c8 -35 12 -172 12 -401
l0 -348 85 0 84 0 -1 588 c-1 359 -5 570 -10 543 -13 -66 -19 -62 -19 14 0 47
-3 66 -10 59 -15 -15 -15 -423 -1 -437 18 -18 13 -47 -8 -47 -12 0 -23 -11
-29 -27 l-10 -28 -1 29 c-1 35 -22 98 -36 108 -6 5 -10 149 -11 400 -1 216 -4
730 -8 1142 -6 681 -9 751 -24 773 -13 17 -24 23 -45 20 -21 -3 -32 2 -42 17
-31 50 -21 286 12 286 9 0 13 16 13 54 0 53 11 78 25 56 5 -8 11 -8 19 -1 7 6
16 8 19 4 4 -3 8 -97 9 -207 l2 -201 6 245 c14 482 12 828 -6 910 -9 41 -16
82 -15 90 1 8 1 97 1 198 0 100 4 190 9 200 5 10 12 146 15 302 3 157 9 359
12 449 l7 163 -29 23 c-22 18 -33 21 -47 13 -25 -13 -32 -4 -11 16 21 22 14
28 -34 28 -33 -1 -44 5 -73 39 -18 21 -42 39 -52 39 -10 0 -21 9 -24 20 -5 20
-23 28 -23 10 0 -5 -7 -10 -15 -10 -8 0 -15 -4 -15 -10 0 -5 -7 -10 -16 -10
-10 0 -14 6 -11 14 4 10 1 13 -10 9 -11 -4 -14 -1 -11 13 3 15 13 19 48 21 25
1 65 3 90 5 l45 3 -3 40 c-3 45 -43 90 -72 82 -11 -3 -17 1 -16 12 1 9 -8 17
-21 19 -27 4 -29 11 -6 27 15 11 15 15 -5 43 -12 16 -22 35 -22 41 0 6 -4 11
-9 11 -5 0 -11 6 -14 14 -7 18 27 10 44 -10 13 -16 39 -19 39 -4 0 6 9 10 20
10 14 0 19 6 17 20 -2 11 -6 23 -10 26 -4 4 -7 13 -7 21 0 21 27 15 47 -11 15
-19 26 -23 49 -19 16 3 37 12 47 21 19 17 23 52 6 52 -5 0 -7 5 -4 10 11 17
48 11 73 -12 23 -23 24 -23 38 -4 8 11 14 35 14 53 l0 33 -380 0 -380 0 -1
-42 c-1 -24 -1 -81 0 -128 1 -47 -2 -91 -8 -99 -6 -9 -11 34 -16 128 -7 129
-9 141 -26 141 -16 0 -19 -6 -14 -37z m430 -253 c17 -7 14 -9 -13 -9 -20 -1
-31 3 -27 9 7 12 13 12 40 0z m-368 -67 c-2 -16 -4 -5 -4 22 0 28 2 40 4 28 2
-13 2 -35 0 -50z m203 -28 c0 -8 -7 -15 -15 -15 -9 0 -12 6 -9 15 4 8 10 15
15 15 5 0 9 -7 9 -15z m-203 -47 c-3 -7 -5 -2 -5 12 0 14 2 19 5 13 2 -7 2
-19 0 -25z m0 -60 c-3 -7 -5 -2 -5 12 0 14 2 19 5 13 2 -7 2 -19 0 -25z m607
-163 c-4 -8 -7 -15 -9 -15 -2 0 -5 7 -9 15 -3 9 0 15 9 15 9 0 12 -6 9 -15z
m102 -3253 c-7 -163 -14 -212 -32 -212 -8 0 -17 13 -20 30 -4 16 -10 27 -15
25 -10 -7 -16 93 -7 120 4 11 10 41 13 68 3 26 10 45 15 42 5 -3 12 11 16 32
9 50 15 59 26 39 6 -10 7 -72 4 -144z m-356 -163 c0 -5 -4 -9 -10 -9 -5 0 -10
7 -10 16 0 8 5 12 10 9 6 -3 10 -10 10 -16z m340 -265 c0 -8 -4 -12 -10 -9 -5
3 -10 10 -10 16 0 5 5 9 10 9 6 0 10 -7 10 -16z m-484 -855 c-3 -16 1 -60 10
-97 9 -37 20 -132 26 -212 14 -200 20 -669 8 -650 -5 8 -10 35 -10 60 0 25 -6
106 -14 180 -37 340 -57 677 -42 734 9 36 30 22 22 -15z m651 -191 c-3 -8 -6
-5 -6 6 -1 11 2 17 5 13 3 -3 4 -12 1 -19z m0 -210 c-3 -8 -6 -5 -6 6 -1 11 2
17 5 13 3 -3 4 -12 1 -19z m-690 -390 c-2 -13 -4 -3 -4 22 0 25 2 35 4 23 2
-13 2 -33 0 -45z"/>
<path d="M1390 6260 c0 -11 5 -20 10 -20 6 0 10 9 10 20 0 11 -4 20 -10 20 -5
0 -10 -9 -10 -20z"/>
<path d="M1403 6185 c0 -27 2 -38 4 -22 2 15 2 37 0 50 -2 12 -4 0 -4 -28z"/>
<path d="M1491 6176 c-13 -16 -6 -208 9 -237 6 -10 10 -27 10 -38 0 -29 24
-26 38 4 18 38 15 95 -3 95 -11 0 -15 11 -15 40 0 30 4 40 16 40 10 0 14 6 11
14 -3 8 -11 33 -17 55 -11 42 -29 52 -49 27z"/>
<path d="M1043 6130 c0 -30 2 -43 4 -27 2 15 2 39 0 55 -2 15 -4 2 -4 -28z"/>
<path d="M6028 6073 c7 -3 16 -2 19 1 4 3 -2 6 -13 5 -11 0 -14 -3 -6 -6z"/>
<path d="M1423 5990 c0 -30 2 -43 4 -27 2 15 2 39 0 55 -2 15 -4 2 -4 -28z"/>
<path d="M1431 5813 c0 -16 4 -37 9 -48 6 -15 9 -8 9 28 1 26 -3 47 -9 47 -5
0 -10 -12 -9 -27z"/>
<path d="M3741 5774 c0 -11 3 -14 6 -6 3 7 2 16 -1 19 -3 4 -6 -2 -5 -13z"/>
<path d="M3538 5763 c12 -2 30 -2 40 0 9 3 -1 5 -23 4 -22 0 -30 -2 -17 -4z"/>
<path d="M1454 5613 c3 -60 10 -148 15 -198 8 -81 40 -438 41 -458 0 -5 4 -6
9 -2 6 3 12 -14 14 -37 3 -39 4 -37 5 13 1 31 -3 81 -8 110 -18 94 -23 150
-35 379 -4 74 -11 139 -16 145 -5 5 -9 42 -9 82 0 47 -4 73 -11 73 -8 0 -9
-32 -5 -107z"/>
<path d="M3010 5700 c-8 -5 -27 -10 -42 -10 -16 0 -28 -4 -28 -10 0 -13 36
-13 61 1 11 5 39 14 62 19 l42 8 -40 1 c-22 0 -47 -4 -55 -9z"/>
<path d="M3395 5701 c11 -5 34 -10 51 -10 17 -1 37 -8 44 -15 15 -19 98 -51
107 -42 4 4 1 11 -7 17 -13 8 -13 10 0 18 8 6 11 13 7 18 -5 4 -12 1 -17 -6
-7 -12 -13 -11 -36 4 -18 12 -52 19 -98 22 -50 2 -65 0 -51 -6z"/>
<path d="M3620 5666 c0 -12 32 -35 48 -36 6 0 12 5 12 10 0 6 -8 10 -18 10
-10 0 -23 5 -30 12 -7 7 -12 8 -12 4z"/>
<path d="M3756 5606 c3 -8 12 -12 21 -9 12 5 12 7 1 14 -20 13 -28 11 -22 -5z"/>
<path d="M4000 5511 c0 -5 14 -21 31 -36 39 -32 31 -45 -9 -16 -16 11 -32 18
-35 15 -9 -10 36 -54 55 -54 10 0 18 -7 18 -15 0 -8 5 -15 11 -15 5 0 7 5 4
10 -3 6 -1 10 4 10 6 0 11 -8 11 -18 0 -22 62 -82 85 -82 8 0 15 7 15 15 0 8
-6 15 -12 15 -12 0 -25 17 -64 83 -13 22 -95 96 -106 97 -5 0 -8 -4 -8 -9z"/>
<path d="M5483 5150 c0 -30 2 -43 4 -27 2 15 2 39 0 55 -2 15 -4 2 -4 -28z"/>
<path d="M4433 5114 c-6 -13 -7 -24 -2 -24 5 0 9 4 9 9 0 5 7 11 17 13 14 3
14 5 2 15 -11 9 -17 7 -26 -13z"/>
<path d="M4461 5078 c-10 -16 -10 -23 -2 -26 6 -2 11 -10 11 -18 0 -8 5 -14
10 -14 11 0 12 36 2 62 -7 16 -9 16 -21 -4z"/>
<path d="M1452 5060 c0 -14 2 -19 5 -12 2 6 2 18 0 25 -3 6 -5 1 -5 -13z"/>
<path d="M1472 4910 c0 -14 2 -19 5 -12 2 6 2 18 0 25 -3 6 -5 1 -5 -13z"/>
<path d="M4632 4635 c0 -16 2 -22 5 -12 2 9 2 23 0 30 -3 6 -5 -1 -5 -18z"/>
<path d="M4641 4574 c0 -11 3 -14 6 -6 3 7 2 16 -1 19 -3 4 -6 -2 -5 -13z"/>
<path d="M2530 4567 c0 -10 5 -27 11 -38 6 -11 14 -41 19 -67 5 -26 20 -87 34
-137 21 -75 25 -83 26 -51 0 46 -50 233 -77 286 -10 19 -13 21 -13 7z"/>
<path d="M4642 4505 c0 -16 2 -22 5 -12 2 9 2 23 0 30 -3 6 -5 -1 -5 -18z"/>
<path d="M4642 4450 c0 -14 2 -19 5 -12 2 6 2 18 0 25 -3 6 -5 1 -5 -13z"/>
<path d="M2092 4388 c-79 -141 -105 -225 -95 -310 4 -37 10 -48 23 -48 26 0
38 20 51 81 6 30 17 81 25 114 14 57 34 207 29 213 -2 2 -16 -21 -33 -50z"/>
<path d="M2393 4432 c-7 -4 -17 -44 -23 -87 -6 -44 -22 -135 -36 -203 -14 -68
-23 -130 -20 -138 8 -20 31 -17 60 9 24 21 26 29 34 177 10 172 4 254 -15 242z"/>
<path d="M4643 4385 c0 -22 2 -30 4 -17 2 12 2 30 0 40 -3 9 -5 -1 -4 -23z"/>
<path d="M3613 4164 c-15 -16 -17 -40 -4 -48 5 -4 12 8 16 25 8 36 5 42 -12
23z"/>
<path d="M3349 3859 c-16 -17 -28 -37 -26 -43 2 -6 36 -12 83 -14 79 -3 79 -3
112 33 19 19 38 35 43 35 5 0 9 4 9 8 0 5 -43 9 -95 11 l-96 2 -30 -32z"/>
<path d="M3220 3806 c-45 -20 -140 -86 -140 -97 0 -18 51 0 108 38 67 44 89
85 32 59z"/>
<path d="M2701 3636 c-10 -12 -8 -17 8 -25 31 -17 51 -14 44 7 -12 32 -34 40
-52 18z"/>
<path d="M1557 3611 c-19 -95 4 -430 31 -439 11 -3 19 55 14 108 -3 31 -4 57
-3 140 0 51 -7 113 -17 155 -18 67 -19 69 -25 36z"/>
<path d="M4266 3437 c3 -10 9 -15 12 -12 3 3 0 11 -7 18 -10 9 -11 8 -5 -6z"/>
<path d="M2174 3298 c-64 -48 -147 -159 -130 -175 9 -10 176 160 176 180 0 23
-10 21 -46 -5z"/>
<path d="M4263 3205 c0 -22 2 -30 4 -17 2 12 2 30 0 40 -3 9 -5 -1 -4 -23z"/>
<path d="M2746 3132 c-4 -7 7 -27 28 -48 40 -41 50 -32 12 9 -13 14 -26 31
-28 38 -3 10 -6 10 -12 1z"/>
<path d="M1580 3055 c-64 -34 -101 -43 -215 -49 -85 -5 -102 -8 -117 -26 -17
-20 -15 -42 5 -67 16 -21 69 -15 158 18 46 17 101 38 122 45 69 26 114 52 131
78 16 26 16 26 -11 26 -16 -1 -48 -12 -73 -25z"/>
<path d="M4712 2967 c-7 -8 -43 -29 -82 -46 -38 -18 -70 -36 -70 -41 0 -12 61
6 133 41 91 43 120 38 137 -22 6 -18 10 -56 11 -84 1 -82 17 -22 18 68 1 66
-1 77 -16 78 -51 4 -70 7 -94 13 -17 5 -29 3 -37 -7z"/>
<path d="M4508 2863 c7 -3 16 -2 19 1 4 3 -2 6 -13 5 -11 0 -14 -3 -6 -6z"/>
<path d="M3025 2823 c-41 -6 -51 -19 -26 -33 15 -8 32 -8 54 -1 18 5 73 12
122 16 162 11 172 23 20 22 -77 0 -153 -2 -170 -4z"/>
<path d="M1120 2735 c0 -8 7 -15 15 -15 9 0 12 6 9 15 -4 8 -10 15 -15 15 -5
0 -9 -7 -9 -15z"/>
<path d="M1780 2630 c-14 -4 -45 -9 -70 -9 -87 -2 -95 -41 -9 -41 51 0 98 15
134 44 20 15 20 15 -5 15 -14 -1 -36 -5 -50 -9z"/>
<path d="M2335 2573 c-16 -8 -43 -31 -58 -51 -49 -65 -179 -191 -221 -216 -90
-52 -281 -66 -382 -27 -50 18 -66 21 -83 12 -12 -7 -21 -15 -21 -19 0 -12 80
-74 80 -62 0 16 53 3 115 -27 39 -20 70 -26 145 -30 139 -7 131 -13 324 242
35 45 73 82 110 105 57 36 70 62 39 78 -12 7 -28 5 -48 -5z"/>
<path d="M2745 2547 c-11 -27 2 -340 19 -437 8 -47 18 -109 21 -137 7 -50 25
-75 25 -34 0 11 5 23 12 27 8 5 9 -2 4 -27 -5 -19 -7 -41 -7 -49 1 -8 1 -23 2
-32 0 -10 5 -18 10 -18 6 0 7 -5 3 -11 -7 -12 26 -79 39 -79 5 0 6 -9 2 -20
-3 -10 2 -34 11 -52 14 -25 19 -29 22 -15 4 21 22 23 22 2 0 -9 7 -18 15 -21
8 -4 15 -15 15 -25 0 -10 7 -19 15 -19 8 0 15 -5 15 -10 0 -19 48 -34 64 -21
11 10 16 9 24 -6 10 -16 12 -15 21 10 6 15 16 27 22 27 7 0 10 16 7 45 -1 24
0 41 4 37 4 -4 10 -56 13 -117 6 -108 9 -124 21 -113 9 10 4 328 -6 393 -5 33
-13 100 -16 148 -4 67 -9 87 -19 83 -10 -3 -16 18 -26 82 -7 48 -12 95 -11
104 0 10 -4 20 -9 23 -20 13 3 23 34 15 64 -16 126 -20 133 -8 4 7 2 14 -5 16
-18 6 19 31 46 32 12 0 25 5 28 10 3 6 15 10 27 10 18 0 19 -2 7 -17 -11 -13
-11 -17 -1 -20 16 -6 15 -40 -3 -132 -14 -68 -14 -85 0 -166 18 -111 24 -176
14 -169 -4 2 -8 -4 -9 -13 0 -10 -3 -50 -6 -90 -3 -39 -1 -86 5 -105 8 -27 9
-17 11 62 2 83 3 90 12 60 6 -21 8 -78 4 -140 -20 -347 -20 -330 -4 -330 25 0
28 22 28 199 0 214 6 259 33 263 13 2 24 14 29 33 14 46 30 75 42 75 17 1 76
85 76 108 0 12 5 22 10 22 6 0 10 7 10 15 0 8 7 15 15 15 8 0 15 8 15 18 1 24
28 57 48 57 14 0 17 8 14 49 -1 27 3 55 9 62 14 17 -3 48 -59 103 -24 24 -68
77 -98 117 l-55 74 -60 -43 c-33 -23 -78 -55 -100 -71 -42 -29 -75 -37 -162
-40 -42 -1 -52 3 -72 26 -18 21 -25 24 -29 13 -8 -23 -34 -18 -59 10 -12 14
-35 28 -51 31 -16 3 -41 13 -56 24 -14 10 -41 20 -60 22 -27 2 -36 9 -41 28
-4 14 -7 19 -8 13 -2 -22 -17 -14 -28 15 -9 24 -11 25 -18 9z m743 -115 c2 -7
-6 -12 -17 -12 -21 0 -27 11 -14 24 9 9 26 2 31 -12z m42 -36 c0 -11 -19 -15
-25 -6 -3 5 1 10 9 10 9 0 16 -2 16 -4z m-460 -41 c0 -8 -4 -15 -10 -15 -5 0
-10 7 -10 15 0 8 5 15 10 15 6 0 10 -7 10 -15z m530 -55 c0 -4 7 -13 15 -20 8
-7 15 -17 15 -23 0 -6 -23 13 -50 41 -28 29 -48 57 -45 63 6 9 65 -46 65 -61z"/>
<path d="M1742 2489 c-53 -16 -33 -34 36 -34 65 0 100 17 72 35 -19 12 -64 11
-108 -1z"/>
<path d="M4835 2411 c-16 -27 6 -141 51 -256 13 -33 31 -87 40 -120 31 -116
111 -326 133 -348 6 -6 11 -19 11 -28 0 -10 5 -21 10 -24 14 -9 13 0 -9 53
-54 129 -126 344 -137 407 -25 141 -86 336 -99 316z"/>
<path d="M4560 2334 c-85 -19 -170 -45 -170 -54 0 -14 225 24 245 42 5 4 17 8
26 8 10 0 21 5 24 10 8 13 -44 11 -125 -6z"/>
<path d="M5722 2215 c0 -16 2 -22 5 -12 2 9 2 23 0 30 -3 6 -5 -1 -5 -18z"/>
<path d="M5840 2221 c0 -17 6 -20 40 -18 31 1 40 5 40 19 0 14 -8 18 -40 18
-33 0 -40 -3 -40 -19z"/>
<path d="M1768 2098 c11 -14 52 -31 52 -22 0 2 -15 11 -32 20 -28 14 -31 15
-20 2z"/>
<path d="M1900 2028 c10 -11 101 -58 111 -58 18 0 -14 26 -46 37 -16 6 -39 14
-50 19 -11 4 -18 5 -15 2z"/>
<path d="M5740 1930 c0 -5 5 -10 11 -10 5 0 7 5 4 10 -3 6 -8 10 -11 10 -2 0
-4 -4 -4 -10z"/>
<path d="M1656 1820 c-10 -95 -9 -209 2 -223 6 -7 12 -28 15 -47 2 -19 4 39 4
130 1 181 -10 248 -21 140z"/>
<path d="M1715 1803 c-8 -45 5 -363 15 -363 11 0 22 68 14 82 -4 7 -3 8 4 4 7
-4 12 -18 12 -32 0 -29 0 -29 45 -7 36 17 49 39 18 29 -16 -5 -18 5 -20 100
-2 101 -13 141 -34 128 -5 -3 -9 -17 -9 -32 0 -32 -16 -60 -27 -48 -4 5 -2 11
5 13 7 3 11 21 11 46 l-2 42 -6 -40 c-5 -34 -7 -36 -13 -17 -3 13 -4 48 -1 78
7 61 -1 73 -12 17z m42 -195 c-3 -8 -6 -5 -6 6 -1 11 2 17 5 13 3 -3 4 -12 1
-19z"/>
<path d="M2355 1810 c-11 -18 7 -32 35 -26 27 5 57 -13 44 -27 -4 -4 55 -117
70 -134 1 -1 10 13 21 33 l18 35 -33 34 c-19 19 -41 35 -49 35 -14 0 -14 1 -1
10 8 5 25 10 38 10 13 0 20 4 17 10 -3 6 -16 8 -28 5 -12 -3 -42 1 -66 10 -51
18 -58 18 -66 5z"/>
<path d="M1610 1669 c0 -5 5 -7 10 -4 6 3 10 8 10 11 0 2 -4 4 -10 4 -5 0 -10
-5 -10 -11z"/>
<path d="M2644 1655 c15 -23 15 -25 -3 -35 -11 -5 -27 -10 -35 -10 -20 0 -21
-26 -1 -34 8 -3 15 -12 15 -19 0 -13 40 -37 62 -37 17 0 1 120 -19 142 -24 27
-38 22 -19 -7z"/>
<path d="M5092 1595 c0 -16 2 -22 5 -12 2 9 2 23 0 30 -3 6 -5 -1 -5 -18z"/>
<path d="M2520 1571 c0 -5 7 -14 15 -21 8 -7 15 -19 15 -26 0 -8 4 -14 9 -14
5 0 12 -10 16 -22 l8 -23 4 23 c3 15 -5 34 -24 57 -28 34 -43 43 -43 26z"/>
<path d="M5112 1525 c0 -16 2 -22 5 -12 2 9 2 23 0 30 -3 6 -5 -1 -5 -18z"/>
<path d="M2930 1500 c0 -5 5 -10 11 -10 5 0 7 5 4 10 -3 6 -8 10 -11 10 -2 0
-4 -4 -4 -10z"/>
<path d="M1793 1463 c-29 -4 -33 -8 -33 -34 0 -18 -4 -28 -10 -24 -6 4 -10
-14 -10 -47 -2 -150 -10 -368 -15 -401 -4 -22 -13 -57 -21 -79 -9 -27 -11 -45
-4 -57 7 -12 9 -7 10 22 0 53 17 46 22 -9 4 -50 -4 -70 -21 -60 -8 5 -11 -99
-9 -383 l1 -391 29 0 c27 0 28 2 23 38 -24 177 -37 356 -39 510 0 101 2 186 5
188 15 9 39 -155 39 -274 1 -94 4 -132 15 -146 10 -13 11 -24 5 -37 -12 -22
-4 -189 10 -203 7 -7 10 -1 10 17 0 18 4 25 14 21 10 -4 13 -19 12 -47 -2 -23
-1 -48 2 -54 6 -18 282 -18 282 0 0 6 -5 39 -11 72 -10 56 -20 131 -33 265 -3
30 -13 100 -21 155 -8 55 -20 141 -25 190 -16 150 -32 259 -40 275 -5 9 -14
72 -21 140 -11 110 -15 128 -36 146 -12 12 -23 26 -23 32 0 6 -5 12 -10 14 -7
2 -7 13 0 35 9 25 8 36 -4 56 -9 13 -13 26 -10 29 11 11 -16 48 -34 46 -9 0
-32 -3 -49 -5z"/>
<path d="M5126 1447 c-3 -13 -1 -39 4 -58 6 -19 10 -54 10 -79 0 -25 5 -63 10
-85 11 -43 34 -424 50 -830 14 -349 18 -395 37 -395 14 0 15 13 9 98 -4 53
-11 203 -16 332 -6 129 -14 287 -20 350 -5 63 -10 160 -10 215 -1 130 -43 452
-63 471 -2 3 -7 -6 -11 -19z"/>
<path d="M2560 1450 c0 -5 5 -10 10 -10 6 0 10 5 10 10 0 6 -4 10 -10 10 -5 0
-10 -4 -10 -10z"/>
<path d="M2980 1440 c0 -5 5 -10 11 -10 5 0 7 5 4 10 -3 6 -8 10 -11 10 -2 0
-4 -4 -4 -10z"/>
<path d="M3162 1363 c1 -43 2 -115 0 -160 -2 -80 -3 -83 -25 -83 -43 0 -59
-70 -24 -104 9 -10 17 -27 17 -38 0 -21 -9 -21 -53 -3 -13 5 -18 4 -17 -6 4
-26 0 -38 -19 -56 -17 -16 -19 -24 -11 -58 6 -22 12 -69 15 -105 9 -124 14
-140 42 -140 17 0 27 7 30 20 4 15 11 19 24 15 11 -4 28 -3 39 0 25 8 27 53 3
70 -14 11 -15 15 -4 29 10 12 13 83 12 317 -1 166 -4 319 -7 340 -11 68 -25
42 -22 -38z"/>
<path d="M0 1177 c0 -60 4 -107 9 -107 9 0 4 199 -5 209 -2 2 -4 -44 -4 -102z"/>
<path d="M7 1044 c-11 -12 -8 -126 3 -119 6 4 10 -5 10 -19 0 -14 -4 -26 -10
-26 -6 0 -9 -160 -9 -440 l1 -440 50 0 51 0 -8 113 c-8 132 -21 219 -25 172
-4 -47 0 -166 6 -209 5 -30 3 -37 -7 -34 -10 3 -16 34 -21 104 -3 54 -9 147
-13 205 -6 90 -5 107 9 121 19 20 21 103 6 248 -6 52 -12 144 -15 204 -4 102
-12 136 -28 120z"/>
<path d="M2170 984 c0 -14 4 -23 10 -19 6 3 10 15 10 26 0 10 -4 19 -10 19 -5
0 -10 -12 -10 -26z"/>
<path d="M2680 963 c1 -10 47 -63 55 -63 13 0 3 29 -18 48 -24 23 -37 28 -37
15z"/>
<path d="M6333 935 c0 -22 2 -30 4 -17 2 12 2 30 0 40 -3 9 -5 -1 -4 -23z"/>
<path d="M1390 920 c0 -22 5 -40 10 -40 6 0 10 18 10 40 0 22 -4 40 -10 40 -5
0 -10 -18 -10 -40z"/>
<path d="M2400 941 c0 -5 12 -13 28 -19 75 -29 94 -25 40 8 -34 21 -68 26 -68
11z"/>
<path d="M2510 890 c0 -9 39 -25 46 -18 2 3 -7 10 -21 16 -14 6 -25 7 -25 2z"/>
<path d="M2956 861 c-10 -29 2 -131 15 -131 6 0 8 -4 5 -9 -4 -5 1 -38 10 -73
18 -71 37 -111 29 -63 -3 17 -6 56 -8 88 -2 33 -9 62 -15 65 -5 4 -14 39 -19
77 -7 55 -11 65 -17 46z"/>
<path d="M2200 853 c0 -8 113 -115 140 -133 4 -3 10 -15 14 -27 6 -19 3 -23
-12 -23 -11 0 -25 7 -32 15 -16 20 -70 46 -70 34 0 -17 -22 -9 -27 11 -3 11
-9 17 -15 14 -5 -3 -6 -14 -3 -24 3 -10 1 -21 -5 -25 -6 -4 -11 8 -12 29 -1
20 -2 44 -2 54 -1 18 -34 57 -42 49 -3 -2 3 -87 12 -188 9 -101 18 -206 20
-234 2 -27 8 -83 14 -123 5 -40 10 -120 10 -178 l0 -104 229 0 229 0 -5 97
c-3 54 -9 101 -14 104 -17 10 -21 138 -6 168 8 16 10 35 6 47 -11 27 1 106 18
126 14 15 11 18 -24 26 -107 28 -123 29 -134 16 -8 -10 -5 -15 15 -20 14 -3
28 -15 32 -26 9 -29 -5 -36 -25 -11 -10 12 -34 28 -54 37 -22 9 -37 22 -37 32
0 9 -14 29 -31 44 -21 18 -28 30 -20 34 17 11 14 21 -24 66 -33 40 -46 68 -25
55 5 -3 8 0 5 7 -5 11 -40 29 -107 54 -10 3 -18 2 -18 -3z"/>
<path d="M2795 826 c-6 -6 -18 -23 -27 -38 -16 -24 -16 -27 -1 -32 19 -8 53
20 53 43 0 26 -13 41 -25 27z"/>
<path d="M2660 800 c0 -5 5 -10 10 -10 6 0 10 5 10 10 0 6 -4 10 -10 10 -5 0
-10 -4 -10 -10z"/>
<path d="M2525 720 c-10 -17 42 -30 119 -30 62 0 76 3 92 21 19 22 19 22 -1
12 -11 -6 -29 -7 -40 -2 -29 11 -163 11 -170 -1z"/>
<path d="M2720 646 c0 -8 7 -17 16 -20 23 -9 6 -28 -18 -20 -15 4 -19 2 -14
-7 3 -8 8 -21 12 -29 5 -15 63 -60 77 -60 15 0 6 42 -17 78 -23 37 -26 44 -26
62 0 6 -7 10 -15 10 -8 0 -15 -6 -15 -14z"/>
<path d="M1414 380 c0 -102 2 -143 3 -92 2 50 2 134 0 185 -1 50 -3 9 -3 -93z"/>
<path d="M57 426 c-4 -10 -5 -21 -2 -24 9 -9 17 6 13 25 -3 17 -4 17 -11 -1z"/>
<path d="M5338 203 c4 -216 9 -242 10 -48 0 88 -3 170 -7 183 -3 13 -5 -48 -3
-135z"/>
</g>
</svg>
